<?xml version="1.0" encoding="UTF-8"?>
<svg xmlns="http://www.w3.org/2000/svg" viewBox="0 0 191.12 26.50" role="img" aria-label="Created by Hashcod">
  <!-- Created by Hashcod — gray, transparent bg; center icon = exact creator-mark.svg geometry -->
  <path fill="#8a8a8a" d="M6.9359375 19.338671875Q5.5908203125 19.338671875 4.540380859375 18.70078125Q3.48994140625 18.062890624999998 2.88671875 16.87724609375Q2.28349609375 15.691601562499999 2.28349609375 14.04140625Q2.28349609375 12.38427734375 2.890185546875 11.195166015624999Q3.496875 10.006054687499999 4.547314453125 9.3681640625Q5.5977539062499995 8.7302734375 6.9359375 8.7302734375Q8.024511718749999 8.7302734375 8.925878906249999 9.142822265625Q9.82724609375 9.555371093749999 10.42353515625 10.335400390624999Q11.01982421875 11.115429687499999 11.1931640625 12.2109375H9.60537109375Q9.411230468749999 11.2263671875 8.665869140624999 10.6994140625Q7.9205078124999995 10.1724609375 6.9498046874999995 10.1724609375Q6.0623046875 10.1724609375 5.362011718750001 10.619677734375Q4.66171875 11.06689453125 4.256103515625 11.930126953125Q3.85048828125 12.793359375 3.85048828125 14.04140625Q3.85048828125 15.29638671875 4.256103515625 16.15615234375Q4.66171875 17.01591796875 5.362011718750001 17.456201171875Q6.0623046875 17.896484375 6.9498046874999995 17.896484375Q7.9205078124999995 17.896484375 8.665869140624999 17.366064453125Q9.411230468749999 16.83564453125 9.60537109375 15.85107421875H11.20009765625Q11.040625 16.87724609375 10.461669921875 17.6607421875Q9.88271484375 18.444238281249998 8.977880859374999 18.891455078125Q8.073046875 19.338671875 6.9359375 19.338671875Z"/><path fill="#8a8a8a" d="M12.940429687499998 19.2V11.4482421875H14.41728515625V12.6962890625H14.500488281249998Q14.708496093749998 12.06533203125 15.245849609374998 11.701318359375Q15.783203124999998 11.3373046875 16.4626953125 11.3373046875Q16.608300781249998 11.3373046875 16.798974609374998 11.351171874999999Q16.989648437499998 11.3650390625 17.10751953125 11.37890625V12.8349609375Q17.024316406249998 12.81416015625 16.78857421875 12.782958984375Q16.55283203125 12.7517578125 16.31015625 12.7517578125Q15.512792968749999 12.7517578125 14.989306640625 13.240576171874999Q14.465820312499998 13.72939453125 14.465820312499998 14.49208984375V19.2Z"/><path fill="#8a8a8a" d="M21.773828124999998 19.35947265625Q20.629785156249998 19.35947265625 19.797753906249998 18.8671875Q18.965722656249998 18.374902343749998 18.518505859374997 17.48046875Q18.071289062499996 16.58603515625 18.071289062499996 15.379589843749999Q18.071289062499996 14.18701171875 18.511572265625 13.2787109375Q18.951855468749997 12.37041015625 19.756152343749996 11.860791015624999Q20.560449218749998 11.351171874999999 21.642089843749996 11.351171874999999Q22.522656249999997 11.351171874999999 23.316552734374998 11.742919921875Q24.11044921875 12.13466796875 24.606201171875 12.990966796875Q25.101953124999998 13.847265624999999 25.101953124999998 15.2478515625V15.788671874999999H19.60361328125Q19.645214843749997 16.9119140625 20.241503906249996 17.504736328125Q20.837792968749998 18.097558593749998 21.7876953125 18.097558593749998Q22.425585937499996 18.097558593749998 22.886669921874997 17.820214843749998Q23.34775390625 17.542871093749998 23.548828124999996 17.00205078125L24.984082031249997 17.341796875Q24.706738281249997 18.25009765625 23.860839843749996 18.80478515625Q23.014941406249996 19.35947265625 21.773828124999998 19.35947265625ZM19.610546874999997 14.6515625H23.5904296875Q23.507226562499998 13.736328125 23.018408203125 13.17470703125Q22.529589843749996 12.6130859375 21.6490234375 12.6130859375Q20.733789062499998 12.6130859375 20.203369140625 13.212841796874999Q19.67294921875 13.812597656249999 19.610546874999997 14.6515625Z"/><path fill="#8a8a8a" d="M28.943164062499996 19.37333984375Q28.20126953125 19.37333984375 27.608447265624996 19.099462890625Q27.015624999999996 18.825585937499998 26.668945312499996 18.2986328125Q26.322265624999996 17.7716796875 26.322265624999996 17.008984375Q26.322265624999996 16.35029296875 26.578808593749997 15.923876953125Q26.835351562499998 15.4974609375 27.265234375 15.251318359374999Q27.695117187499996 15.00517578125 28.225537109374997 14.88037109375Q28.75595703125 14.75556640625 29.303710937499996 14.6931640625Q30.329882812499996 14.575292968749999 30.794433593749996 14.488623046874999Q31.258984374999997 14.401953124999999 31.258984374999997 13.99287109375V13.951269531249999Q31.258984374999997 13.3064453125 30.881103515624996 12.949365234375Q30.503222656249996 12.59228515625 29.775195312499996 12.59228515625Q29.012499999999996 12.59228515625 28.575683593749996 12.92509765625Q28.138867187499997 13.257910156249999 27.979394531249998 13.653125L26.544140624999997 13.2787109375Q26.807617187499996 12.5853515625 27.29990234375 12.16240234375Q27.792187499999997 11.739453125 28.426611328125 11.5453125Q29.061035156249996 11.351171874999999 29.754394531249996 11.351171874999999Q30.218945312499997 11.351171874999999 30.745898437499996 11.462109374999999Q31.272851562499998 11.573046875 31.73740234375 11.860791015624999Q32.201953124999996 12.148535156249999 32.4931640625 12.682421875Q32.784375 13.21630859375 32.784375 14.055273437499999V19.2H31.307519531249998V18.13916015625H31.231249999999996Q31.002441406249996 18.59677734375 30.444287109374997 18.985058593749997Q29.886132812499998 19.37333984375 28.943164062499996 19.37333984375ZM29.282910156249997 18.14609375Q29.9 18.14609375 30.34375 17.899951171875Q30.787499999999998 17.65380859375 31.026708984375 17.25859375Q31.265917968749996 16.86337890625 31.265917968749996 16.40576171875V15.414257812499999Q31.154980468749997 15.5251953125 30.790966796874997 15.604931640624999Q30.426953124999997 15.684667968749999 30.024804687499998 15.740136718749998Q29.62265625 15.795605468749999 29.386914062499997 15.823339843749999Q28.742089843749998 15.9134765625 28.281005859375 16.173486328125Q27.819921875 16.43349609375 27.819921875 17.02978515625Q27.819921875 17.58447265625 28.232470703124996 17.865283203125Q28.645019531249996 18.14609375 29.282910156249997 18.14609375Z"/><path fill="#8a8a8a" d="M38.1509765625 11.4482421875V12.68935546875H36.60478515625V17.1060546875Q36.60478515625 17.57060546875 36.802392578125 17.789013671874997Q37.0 18.007421875 37.45068359375 18.007421875Q37.57548828125 18.007421875 37.766162109375 17.979687499999997Q37.9568359375 17.951953125 38.0955078125 17.924218749999998L38.36591796875 19.14453125Q38.1232421875 19.227734375 37.842431640624994 19.265869140625Q37.56162109375 19.30400390625 37.29814453125 19.30400390625Q36.24423828125 19.30400390625 35.66181640625 18.759716796874997Q35.07939453125 18.2154296875 35.07939453125 17.230859374999998V12.68935546875H33.94921875V11.4482421875H35.07939453125V9.60390625H36.60478515625V11.4482421875Z"/><path fill="#8a8a8a" d="M43.01142578125 19.35947265625Q41.8673828125 19.35947265625 41.0353515625 18.8671875Q40.2033203125 18.374902343749998 39.756103515625 17.48046875Q39.308886718749996 16.58603515625 39.308886718749996 15.379589843749999Q39.308886718749996 14.18701171875 39.749169921874994 13.2787109375Q40.189453125 12.37041015625 40.99375 11.860791015624999Q41.798046875 11.351171874999999 42.879687499999996 11.351171874999999Q43.76025390625 11.351171874999999 44.554150390625 11.742919921875Q45.348046874999994 12.13466796875 45.843798828124996 12.990966796875Q46.33955078125 13.847265624999999 46.33955078125 15.2478515625V15.788671874999999H40.841210937499994Q40.8828125 16.9119140625 41.4791015625 17.504736328125Q42.075390625 18.097558593749998 43.025292968749994 18.097558593749998Q43.66318359375 18.097558593749998 44.124267578125 17.820214843749998Q44.585351562499994 17.542871093749998 44.786425781249996 17.00205078125L46.2216796875 17.341796875Q45.9443359375 18.25009765625 45.0984375 18.80478515625Q44.2525390625 19.35947265625 43.01142578125 19.35947265625ZM40.84814453125 14.6515625H44.828027343749994Q44.74482421875 13.736328125 44.256005859374994 13.17470703125Q43.7671875 12.6130859375 42.886621093749994 12.6130859375Q41.97138671875 12.6130859375 41.440966796874996 13.212841796874999Q40.910546874999994 13.812597656249999 40.84814453125 14.6515625Z"/><path fill="#8a8a8a" d="M50.894921875 19.3525390625Q49.951953125 19.3525390625 49.220458984375 18.87412109375Q48.48896484375 18.395703125 48.069482421874994 17.4943359375Q47.65 16.59296875 47.65 15.344921874999999Q47.65 14.0830078125 48.07294921875 13.18857421875Q48.4958984375 12.294140625 49.227392578125006 11.82265625Q49.95888671875 11.351171874999999 50.894921875 11.351171874999999Q51.616015625 11.351171874999999 52.059765625 11.590380859375Q52.503515625 11.82958984375 52.749658203124994 12.152001953125Q52.99580078125 12.4744140625 53.1275390625 12.71015625H53.2107421875V8.8689453125H54.7361328125V19.2H53.25234375V17.98662109375H53.1275390625Q52.9888671875 18.236230468749998 52.735791015625 18.55517578125Q52.48271484375 18.87412109375 52.03896484375 19.113330078125Q51.59521484375 19.3525390625 50.894921875 19.3525390625ZM51.227734375 18.05595703125Q52.1984375 18.05595703125 52.71845703125 17.3001953125Q53.2384765625 16.54443359375 53.2384765625 15.3310546875Q53.2384765625 14.124609374999999 52.725390625 13.386181640624999Q52.2123046875 12.64775390625 51.227734375 12.64775390625Q50.55517578125 12.64775390625 50.107958984375 13.0013671875Q49.6607421875 13.35498046875 49.435400390625 13.961669921875Q49.21005859375 14.568359375 49.21005859375 15.3310546875Q49.21005859375 16.10068359375 49.438867187499994 16.7177734375Q49.66767578125 17.334863281249998 50.118359375 17.69541015625Q50.56904296875 18.05595703125 51.227734375 18.05595703125Z"/><path fill="#8a8a8a" d="M64.42236328125 19.3525390625Q63.715136718749996 19.3525390625 63.271386718749994 19.113330078125Q62.82763671875 18.87412109375 62.574560546875 18.55517578125Q62.321484375 18.236230468749998 62.1828125 17.98662109375H62.058007812499994V19.2H60.57421875V8.8689453125H62.099609375V12.71015625H62.1828125Q62.31455078125 12.4744140625 62.560693359374994 12.152001953125Q62.8068359375 11.82958984375 63.2505859375 11.590380859375Q63.6943359375 11.351171874999999 64.42236328125 11.351171874999999Q65.35146484375 11.351171874999999 66.082958984375 11.82265625Q66.814453125 12.294140625 67.23740234375 13.18857421875Q67.6603515625 14.0830078125 67.6603515625 15.344921874999999Q67.6603515625 16.59296875 67.2443359375 17.4943359375Q66.8283203125 18.395703125 66.096826171875 18.87412109375Q65.36533203124999 19.3525390625 64.42236328125 19.3525390625ZM64.08261718749999 18.05595703125Q64.7482421875 18.05595703125 65.195458984375 17.69541015625Q65.64267578124999 17.334863281249998 65.871484375 16.7177734375Q66.10029296875 16.10068359375 66.10029296875 15.3310546875Q66.10029296875 14.568359375 65.874951171875 13.961669921875Q65.649609375 13.35498046875 65.202392578125 13.0013671875Q64.75517578125 12.64775390625 64.08261718749999 12.64775390625Q63.098046874999994 12.64775390625 62.5849609375 13.386181640624999Q62.071875 14.124609374999999 62.071875 15.3310546875Q62.071875 16.54443359375 62.59189453125 17.3001953125Q63.1119140625 18.05595703125 64.08261718749999 18.05595703125Z"/><path fill="#8a8a8a" d="M69.24814453125 21.9873046875 69.62255859375 20.74619140625 69.7958984375 20.78779296875Q70.38525390625 20.947265625 70.79780273437501 20.749658203125Q71.21035156250001 20.55205078125 71.42529296875 19.80322265625L71.59169921875001 19.23466796875L68.64492187500001 11.4482421875H70.2951171875L71.82744140625 15.85107421875Q72.00078125 16.36416015625 72.13251953125001 16.86337890625Q72.2642578125 17.36259765625 72.38906250000001 17.86181640625Q72.52080078125 17.36259765625 72.65947265625 16.859912109375Q72.79814453125 16.3572265625 72.97841796875001 15.85107421875L74.53847656250001 11.4482421875H76.1748046875L72.80507812500001 20.27470703125Q72.45146484375 21.20380859375 71.851708984375 21.678759765625Q71.251953125 22.153710937499998 70.31591796875 22.153710937499998Q69.95537109375 22.153710937499998 69.674560546875 22.101708984374998Q69.39375 22.049707031249998 69.24814453125 21.9873046875Z"/>
  <g transform="translate(82.9938,2.2000) scale(0.392857)" aria-hidden="true">
  <!-- Exact Hashcod mark (creator-mark.svg geometry): rounded screen + triangle on lower edge -->
  <!-- Bottom stroke opened at the triangle so it matches the sent logo (gap + solid triangle) -->
  <path fill="none" stroke="#8a8a8a" stroke-width="2" stroke-linecap="round" stroke-linejoin="round"
    d="M 26.0 38
       H 14.5
       A 4.5 4.5 0 0 1 10 33.5
       V 10.5
       A 4.5 4.5 0 0 1 14.5 6
       H 57.5
       A 4.5 4.5 0 0 1 62 10.5
       V 33.5
       A 4.5 4.5 0 0 1 57.5 38
       H 46.0"/>
  <!-- Same triangle path as creator-mark.svg: M36 38 L26 50 H46 Z — solid as in the sent logo -->
  <path fill="#8a8a8a" stroke="#8a8a8a" stroke-width="2" stroke-linejoin="round"
    d="M36 38 L26 50 H46 Z"/>
</g>
  <path fill="#8a8a8a" d="M118.84733537946428 19.2V7.413867187499999H121.25993303571428V12.17578125H126.39362444196428V7.413867187499999H128.81413225446428V19.2H126.39362444196428V14.17705078125H121.25993303571428V19.2Z"/><path fill="#8a8a8a" d="M133.36247209821428 19.3740234375Q132.09684709821428 19.3740234375 131.25837053571428 18.705615234375Q130.41989397321427 18.03720703125 130.41989397321427 16.72412109375Q130.41989397321427 15.7353515625 130.89450334821427 15.17373046875Q131.36911272321427 14.612109375 132.12848772321428 14.35107421875Q132.88786272321428 14.0900390625 133.75797991071428 14.0109375Q134.89704241071428 13.9001953125 135.39933733258928 13.777587890625Q135.9016322544643 13.65498046875 135.9016322544643 13.219921875V13.18037109375Q135.9016322544643 12.618749999999999 135.5417201450893 12.310253906249999Q135.18180803571428 12.0017578125 134.5173549107143 12.0017578125Q133.82917131696428 12.0017578125 133.4099330357143 12.298388671875Q132.99069475446427 12.59501953125 132.84831194196428 13.02216796875L130.67301897321428 12.658300781249999Q131.01315569196427 11.511328124999999 132.02961077008928 10.878515624999999Q133.04606584821428 10.245703125 134.5252650669643 10.245703125Q135.4744838169643 10.245703125 136.3327357700893 10.5462890625Q137.19098772321428 10.846874999999999 137.73283342633928 11.507373046875Q138.2746791294643 12.16787109375 138.2746791294643 13.24365234375V19.2H136.0281947544643V17.97392578125H135.9490931919643Q135.6247767857143 18.59091796875 134.98405412946428 18.982470703125Q134.34333147321428 19.3740234375 133.36247209821428 19.3740234375ZM134.03483537946428 17.704980468749998Q134.86540178571428 17.704980468749998 135.39142717633928 17.2224609375Q135.91745256696427 16.73994140625 135.91745256696427 16.0359375V15.07880859375Q135.77506975446428 15.181640625 135.45470842633927 15.256787109375Q135.13434709821428 15.33193359375 134.77839006696428 15.391259765625Q134.42243303571428 15.4505859375 134.1613978794643 15.4822265625Q133.50485491071427 15.5771484375 133.10143694196427 15.85400390625Q132.6980189732143 16.130859375 132.6980189732143 16.66083984375Q132.6980189732143 17.175 133.0737513950893 17.439990234375Q133.4494838169643 17.704980468749998 134.03483537946428 17.704980468749998Z"/><path fill="#8a8a8a" d="M143.8117885044643 19.3740234375Q142.21393694196428 19.3740234375 141.17375139508928 18.69375Q140.1335658482143 18.0134765625 139.90417131696427 16.7794921875L142.1111049107143 16.399804687499998Q142.45124162946428 17.6337890625 143.88297991071428 17.6337890625Q144.5632533482143 17.6337890625 144.9548060825893 17.376708984375Q145.34635881696428 17.11962890625 145.34635881696428 16.72412109375Q145.34635881696428 16.0517578125 144.2072963169643 15.814453125L142.68063616071427 15.498046875Q140.1335658482143 14.9759765625 140.1335658482143 12.99052734375Q140.1335658482143 11.7169921875 141.15397600446428 10.981347656250001Q142.17438616071428 10.245703125 143.8513392857143 10.245703125Q145.42546037946428 10.245703125 146.3588588169643 10.88642578125Q147.2922572544643 11.5271484375 147.53747209821427 12.6029296875L145.4333705357143 12.974707031249999Q145.29098772321427 12.523828125 144.91130022321425 12.235107421875Q144.53161272321427 11.946386718749999 143.88297991071428 11.946386718749999Q143.2976283482143 11.946386718749999 142.9021205357143 12.195556640625Q142.5066127232143 12.4447265625 142.5066127232143 12.840234375Q142.5066127232143 13.172460937499999 142.7636928013393 13.405810546875Q143.0207728794643 13.63916015625 143.64567522321428 13.765722656249999L145.2356166294643 14.082128906249999Q147.7668666294643 14.596289062499999 147.7668666294643 16.47099609375Q147.7668666294643 17.34111328125 147.26061662946427 17.993701171875Q146.75436662946427 18.6462890625 145.86051897321425 19.01015625Q144.96667131696427 19.3740234375 143.8117885044643 19.3740234375Z"/><path fill="#8a8a8a" d="M151.74567522321428 14.082128906249999V19.2H149.37262834821428V7.413867187499999H151.6982142857143V12.04921875Q152.0858119419643 11.18701171875 152.7502650669643 10.716357421875Q153.41471819196428 10.245703125 154.39557756696428 10.245703125Q155.7719447544643 10.245703125 156.6064662388393 11.131640625Q157.44098772321428 12.017578125 157.44098772321428 13.57587890625V19.2H155.0600306919643V13.98720703125Q155.0600306919643 13.16455078125 154.6368373325893 12.6978515625Q154.2136439732143 12.23115234375 153.4621791294643 12.23115234375Q152.70280412946428 12.23115234375 152.22423967633927 12.717626953125Q151.74567522321428 13.2041015625 151.74567522321428 14.082128906249999Z"/><path fill="#8a8a8a" d="M163.41315569196428 19.3740234375Q162.07633928571428 19.3740234375 161.10734514508928 18.800537109375Q160.13835100446428 18.22705078125 159.6123256138393 17.202685546875Q159.0863002232143 16.1783203125 159.0863002232143 14.8177734375Q159.0863002232143 13.449316406249999 159.6123256138393 12.420996093749999Q160.13835100446428 11.392675781249999 161.10734514508928 10.819189453124999Q162.07633928571428 10.245703125 163.41315569196428 10.245703125Q164.9872767857143 10.245703125 166.0393275669643 11.032763671875Q167.09137834821428 11.81982421875 167.3445033482143 13.18828125L165.1375697544643 13.599609375Q164.9872767857143 12.91142578125 164.5561732700893 12.511962890625Q164.12506975446428 12.1125 163.4368861607143 12.1125Q162.4876674107143 12.1125 161.9972377232143 12.860009765625Q161.5068080357143 13.607519531249999 161.5068080357143 14.80986328125Q161.5068080357143 15.99638671875 161.9972377232143 16.751806640625Q162.4876674107143 17.507226562499998 163.4368861607143 17.507226562499998Q164.12506975446428 17.507226562499998 164.56803850446428 17.091943359374998Q165.0110072544643 16.676660156249998 165.15339006696428 15.96474609375L167.3603236607143 16.3681640625Q167.1071986607143 17.76826171875 166.0551478794643 18.571142578125Q165.00309709821428 19.3740234375 163.41315569196428 19.3740234375Z"/><path fill="#8a8a8a" d="M172.94489397321428 19.3740234375Q171.6159877232143 19.3740234375 170.6430385044643 18.800537109375Q169.67008928571428 18.22705078125 169.1440638950893 17.202685546875Q168.6180385044643 16.1783203125 168.6180385044643 14.8177734375Q168.6180385044643 13.449316406249999 169.1440638950893 12.420996093749999Q169.67008928571428 11.392675781249999 170.6430385044643 10.819189453124999Q171.6159877232143 10.245703125 172.94489397321428 10.245703125Q174.2738002232143 10.245703125 175.2467494419643 10.819189453124999Q176.2196986607143 11.392675781249999 176.7457240513393 12.420996093749999Q177.2717494419643 13.449316406249999 177.2717494419643 14.8177734375Q177.2717494419643 16.1783203125 176.7457240513393 17.202685546875Q176.2196986607143 18.22705078125 175.2467494419643 18.800537109375Q174.2738002232143 19.3740234375 172.94489397321428 19.3740234375ZM172.94489397321428 17.507226562499998Q173.89411272321428 17.507226562499998 174.37663225446428 16.739941406249997Q174.8591517857143 15.97265625 174.8591517857143 14.80986328125Q174.8591517857143 13.63916015625 174.37663225446428 12.875830078125Q173.89411272321428 12.1125 172.94489397321428 12.1125Q171.99567522321428 12.1125 171.5171107700893 12.875830078125Q171.0385463169643 13.63916015625 171.0385463169643 14.80986328125Q171.0385463169643 15.97265625 171.5171107700893 16.739941406249997Q171.99567522321428 17.507226562499998 172.94489397321428 17.507226562499998Z"/><path fill="#8a8a8a" d="M182.1602260044643 19.35029296875Q181.13981584821428 19.35029296875 180.3250697544643 18.824267578125Q179.5103236607143 18.298242187499998 179.0317592075893 17.281787109375Q178.5531947544643 16.26533203125 178.5531947544643 14.794042968749999Q178.5531947544643 13.283203125 179.0436244419643 12.270703125Q179.5340541294643 11.258203125 180.3488002232143 10.751953125Q181.1635463169643 10.245703125 182.1444056919643 10.245703125Q182.8958705357143 10.245703125 183.3942103794643 10.498828125Q183.8925502232143 10.751953125 184.19709123883928 11.12373046875Q184.50163225446428 11.4955078125 184.65983537946428 11.8435546875H184.73893694196428V7.413867187499999H187.11198381696428V19.2H184.77848772321428V17.784082031249998H184.65983537946428Q184.4937220982143 18.140039062499998 184.1852260044643 18.499951171874997Q183.8767299107143 18.85986328125 183.3783900669643 19.105078125Q182.88005022321428 19.35029296875 182.1602260044643 19.35029296875ZM182.8879603794643 17.4439453125Q183.78971819196428 17.4439453125 184.2880580357143 16.716210937499998Q184.7863978794643 15.988476562499999 184.7863978794643 14.7861328125Q184.7863978794643 13.5837890625 184.2920131138393 12.863964843749999Q183.7976283482143 12.144140624999999 182.8879603794643 12.144140624999999Q181.9545619419643 12.144140624999999 181.4720424107143 12.883740234374999Q180.9895228794643 13.62333984375 180.9895228794643 14.7861328125Q180.9895228794643 15.9568359375 181.4759974888393 16.700390624999997Q181.9624720982143 17.4439453125 182.8879603794643 17.4439453125Z"/>
</svg>
