<svg xmlns="http://www.w3.org/2000/svg" fill="none" viewBox="116 116 429.02 265.99"><path fill="#fff" d="M174.358 266.332c32.233 0 58.367 25.89 58.367 57.83 0 31.941-26.134 57.83-58.367 57.83-32.23-.002-58.358-25.891-58.358-57.83s26.128-57.828 58.358-57.83M250.757 116c32.231 0 58.364 25.891 58.366 57.83 0 2.72-.19 5.395-.558 8.014-2.941 20.965-7.267 44.615 4.647 62.184l13.714 20.224 3.392 4.126a1.488 1.488 0 0 0 2.363-.084l2.869-4.042 12.543-18.499c12.512-18.453 7.976-43.386 5.826-65.515a58 58 0 0 1-.27-5.6c0-31.939 26.128-57.828 58.358-57.83 32.232 0 58.367 25.89 58.367 57.83 0 3.105-.248 6.152-.724 9.124-3.176 19.834-7.726 41.77 2.408 59.161l5.785 9.273c5.485 8.793 15.312 13.573 25.264 16.464 24.224 7.036 41.912 29.221 41.913 55.502 0 31.941-26.127 57.83-58.359 57.83s-58.358-25.89-58.358-57.83c0-3.429.301-6.788.879-10.053 3.461-19.554 8.04-41.234-1.977-58.426l-12.726-21.841-.764-1.046a1.42 1.42 0 0 0-2.249-.058l-13.598 20.054c-12.192 17.981-7.606 42.257-4.744 63.733.333 2.499.504 5.048.504 7.637 0 31.941-26.134 57.83-58.366 57.83-32.232-.001-58.358-25.89-58.358-57.83 0-22.688 3.538-48.016-9.231-66.848l-1.011-1.492c-10.257-15.125-28.468-22.63-44.493-31.569-17.769-9.911-29.771-28.776-29.771-50.423.002-31.938 26.128-57.829 58.359-57.83"/></svg>