<svg xmlns="http://www.w3.org/2000/svg" x="0px" y="0px" width="100" height="100" viewBox="0 0 256 256">
<defs><linearGradient x1="19" y1="39" x2="19" y2="51" gradientUnits="userSpaceOnUse" id="color-1_gPS47EOOeWUd_gr1"><stop offset="0" stop-color="#000000"></stop><stop offset="1" stop-color="#4e4e4e"></stop></linearGradient><linearGradient x1="44.728" y1="10.786" x2="44.728" y2="27.758" gradientUnits="userSpaceOnUse" id="color-2_gPS47EOOeWUd_gr2"><stop offset="0" stop-color="#000000"></stop><stop offset="1" stop-color="#4e4e4e"></stop></linearGradient><linearGradient x1="19" y1="15" x2="19" y2="27" gradientUnits="userSpaceOnUse" id="color-3_gPS47EOOeWUd_gr3"><stop offset="0" stop-color="#000000"></stop><stop offset="1" stop-color="#4e4e4e"></stop></linearGradient><linearGradient x1="33.52" y1="5.96" x2="33.52" y2="55" gradientUnits="userSpaceOnUse" id="color-4_gPS47EOOeWUd_gr4"><stop offset="0" stop-color="#868686"></stop><stop offset="1" stop-color="#adacad"></stop></linearGradient><linearGradient x1="43" y1="39" x2="43" y2="51" gradientUnits="userSpaceOnUse" id="color-5_gPS47EOOeWUd_gr5"><stop offset="0" stop-color="#000000"></stop><stop offset="1" stop-color="#4e4e4e"></stop></linearGradient></defs><g fill="none" fill-rule="nonzero" stroke="none" stroke-width="1" stroke-linecap="butt" stroke-linejoin="miter" stroke-miterlimit="10" stroke-dasharray="" stroke-dashoffset="0" font-family="none" font-weight="none" font-size="none" text-anchor="none" style="mix-blend-mode: normal"><g transform="scale(4,4)"><path d="M13,51v-12h12v12z" fill="url(#color-1_gPS47EOOeWUd_gr1)"></path><path d="M36.242,19.271l8.487,-8.485l8.485,8.485l-8.485,8.487z" fill="url(#color-2_gPS47EOOeWUd_gr2)"></path><path d="M13,27v-12h12v12z" fill="url(#color-3_gPS47EOOeWUd_gr3)"></path><path d="M51,35h-16c-1.103,0 -2,0.897 -2,2v16c0,1.103 0.897,2 2,2h16c1.103,0 2,-0.897 2,-2v-16c0,-1.103 -0.897,-2 -2,-2zM51,53l-16,0.002v-16.002h16zM27,11h-16c-1.103,0 -2,0.897 -2,2v16c0,1.103 0.897,2 2,2h16c1.103,0 2,-0.897 2,-2v-16c0,-1.103 -0.897,-2 -2,-2zM27,29l-16,0.002v-16.002h16zM27,35h-16c-1.103,0 -2,0.897 -2,2v16c0,1.103 0.897,2 2,2h16c1.103,0 2,-0.897 2,-2v-16c0,-1.103 -0.897,-2 -2,-2zM27,53l-16,0.002v-16.002h16zM57.46,17.86l-11.32,-11.32c-0.37,-0.37 -0.88,-0.58 -1.41,-0.58c-0.54,0 -1.04,0.21 -1.42,0.58l-11.31,11.32c-0.38,0.37 -0.59,0.88 -0.59,1.41c0,0.54 0.21,1.04 0.59,1.42l11.31,11.31c0.38,0.38 0.88,0.59 1.42,0.59c0.53,0 1.04,-0.21 1.41,-0.59l11.32,-11.31c0.37,-0.38 0.58,-0.88 0.58,-1.42c0,-0.53 -0.21,-1.04 -0.58,-1.41zM44.73,30.59l-11.31,-11.32l11.31,-11.31l11.31,11.31z" fill="url(#color-4_gPS47EOOeWUd_gr4)"></path><path d="M37,51v-12h12v12z" fill="url(#color-5_gPS47EOOeWUd_gr5)"></path></g></g>
</svg>
