<?xml version='1.0' encoding='utf-8'?>
<svg xmlns="http://www.w3.org/2000/svg" fill="none" viewBox="0 0 1080 1080" width="1080" height="1080"><defs><clipPath id="assetClipPath_f9mxFwMd"><path d="m0 0 h 50 v 50 h -50 v -50 z" id="path_0vByVd7t" fill="#ffffff" /></clipPath><clipPath id="assetClipPath_j9OOX5od"><path d="m0 0 h 674 v 330 h -674 v -330 z" id="path_HL1eaKnd" fill="#ffffff" /></clipPath></defs><g transform="translate(156 413)" data-asset-index="0"><g clip-path="url(#assetClipPath_f9mxFwMd)" transform="scale(5.08 5.08)" data-asset-index="0"><polyline fill="none" stroke="#060000" stroke-linecap="round" stroke-linejoin="round" stroke-miterlimit="10" stroke-width=".5" points="22.109,32.765 16.454,29.5 12.124,32 32.043,43.5 36.373,41 28.657,36.545" id="ze7GjSvIQIwkkjE0ll6Ur" /><polygon fill="none" stroke="#060000" stroke-linecap="round" stroke-linejoin="round" stroke-miterlimit="10" stroke-width=".5" points="32.043,43.5 36.373,41 36.373,44 32.043,46.5" id="bYXUVwjJlSoo7ZB7mxcps" /><polygon fill="none" stroke="#060000" stroke-linecap="round" stroke-linejoin="round" stroke-miterlimit="10" stroke-width=".5" points="12.124,32 12.124,35 32.043,46.5 32.043,43.5" id="f-GoZ4VXPaTdPmnY_HbSC" /><path fill="none" stroke="#060000" stroke-linecap="round" stroke-linejoin="round" stroke-miterlimit="10" stroke-width=".5" d="M24.65,26.303l-3.287-4.152V17.66l3.287-0.336l3.285,4.153l0.003,4.489L24.65,26.303z M34.242,24.678l2.066-0.949l-2.277-5.987 l-2.606-0.469l-3.958-5.008l-0.538-3.494l-4.556-2.648l-0.537,2.874L17.878,9.41l-2.607-2.559l-2.281,3.35l2.07,3.341v5.406 l-2.07,0.947l2.281,5.99l2.608,0.465l3.955,5.008l0.587,3.592l4.426,2.546l0.619-2.866l3.961-0.412l2.6,2.554l2.28-3.343 l-2.066-3.346v-5.405H34.242z" id="ysPBy5cFdOLecTW7uajMU" /><polygon fill="none" stroke="#060000" stroke-linecap="round" stroke-linejoin="round" stroke-miterlimit="10" stroke-width=".5" points="24.657,17.326 24.987,17.737 24.96,19.973 21.366,22.144 21.357,17.668" id="qBGR5KWu1fZ3Z76ZSdzb8" /><polygon fill="none" stroke="#060000" stroke-linecap="round" stroke-linejoin="round" stroke-miterlimit="10" stroke-width=".5" points="24.959,19.964 27.95,23.735 27.954,24.258 24.65,26.303 21.356,22.151" id="paOJAP7OzSdMh2Y6Tt" /><polygon fill="none" stroke="#060000" stroke-linecap="round" stroke-linejoin="round" stroke-miterlimit="10" stroke-width=".5" points="27.954,24.258 27.941,25.967 24.64,26.306" id="ZoYlxEfPcVWldADjlg7gc" /><polygon fill="none" stroke="#060000" stroke-linecap="round" stroke-linejoin="round" stroke-miterlimit="10" stroke-width=".5" points="15.283,6.87 18.88,4.788 21.475,7.324 17.872,9.422" id="B3kLUSM8kcZr3sb59OMnt" /><polygon fill="none" stroke="#060000" stroke-linecap="round" stroke-linejoin="round" stroke-miterlimit="10" stroke-width=".5" points="22.365,6.13 25.979,4.002 30.496,6.615 26.927,8.787" id="HPDMrVzVYV54I-YMzlmci" /><polygon fill="none" stroke="#060000" stroke-linecap="round" stroke-linejoin="round" stroke-miterlimit="10" stroke-width=".5" points="27.479,12.278 31.052,10.209 30.516,6.614 26.927,8.761" id="Ot4oE8QAcSipKOkdlOYj" /><polygon fill="none" stroke="#060000" stroke-linecap="round" stroke-linejoin="round" stroke-miterlimit="10" stroke-width=".5" points="27.478,12.272 31.042,10.207 35.044,15.203 31.431,17.27" id="nIVNChI4vD8Y3UmMAaGH8" /><polygon fill="none" stroke="#060000" stroke-linecap="round" stroke-linejoin="round" stroke-miterlimit="10" stroke-width=".5" points="34.062,17.748 37.578,15.694 35.048,15.178 31.407,17.277" id="xFSG9oPcASTj9I5HCkkty" /><polygon fill="none" stroke="#060000" stroke-linecap="round" stroke-linejoin="round" stroke-miterlimit="10" stroke-width=".5" points="34.029,17.736 37.592,15.691 39.836,21.695 36.303,23.743" id="utoqeGKZPmSFXMqfVwVC2" /><polygon fill="none" stroke="#060000" stroke-linecap="round" stroke-linejoin="round" stroke-miterlimit="10" stroke-width=".5" points="21.839,9.003 17.87,9.418 21.475,7.324 22.189,7.257" id="u1O0ggb236ziVYfCTeQuq" /><polygon fill="none" stroke="#060000" stroke-linecap="round" stroke-linejoin="round" stroke-miterlimit="10" stroke-width=".5" points="37.801,28.08 37.837,22.83 36.309,23.732 34.241,24.686 34.252,30.086" id="GxxVoih6OT958bT6pUltd" /><polygon fill="none" stroke="#060000" stroke-linecap="round" stroke-linejoin="round" stroke-miterlimit="10" stroke-width=".5" points="37.802,28.078 39.844,31.343 36.295,33.423 34.23,30.095" id="jFM8dyXQtOBpUHgf2Omd4" /><polygon fill="none" stroke="#060000" stroke-linecap="round" stroke-linejoin="round" stroke-miterlimit="10" stroke-width=".5" points="27.464,34.626 26.848,37.491 30.411,35.341 30.699,34.298" id="PvgiJGQB99qnspX-NhhHY" /><polygon fill="none" stroke="#060000" stroke-linecap="round" stroke-linejoin="round" stroke-miterlimit="10" stroke-width=".5" points="34.024,36.763 36.305,33.416 39.836,31.343 37.528,34.655" id="RUZ0e-C7oall9qnx-m6Yo" /><polygon fill="none" stroke="#060000" stroke-linecap="round" stroke-linejoin="round" stroke-miterlimit="10" points="25.986,4.032 22.469,5.966 22.234,7.141 21.516,7.256 18.831,4.818 15.412,6.806 13.148,10.163 15.079,13.526 15.084,18.882 12.97,19.772 15.317,25.879 17.916,26.261 21.849,31.201 22.028,32.648 16.462,29.507 12.177,31.926 12.124,34.881 32.043,46.5 36.373,44 36.373,41 28.579,36.5 30.311,35.5 30.699,34.298 31.407,34.133 34.029,36.652 37.578,34.696 39.844,31.343 37.837,28.098 37.837,22.83 39.454,21.657 37.578,15.696 34.998,15.137 31.001,10.219 30.572,6.696" id="tikgRG064WifVS8nmDlez" /></g></g><g transform="translate(330 375)" data-asset-index="-1"><g clip-path="url(#assetClipPath_j9OOX5od)" transform="scale(1 1)" data-asset-index="-1"><path fill="#000000" d="M92.19 151.60L85.16 151.60L85.16 93.40L104.84 93.40Q111.68 93.40 116.04 95.86Q120.39 98.32 122.50 102.50Q124.61 106.68 124.61 111.84L124.61 111.84Q124.61 116.95 122.52 121.17Q120.43 125.39 116.07 127.87Q111.72 130.35 104.92 130.35L104.92 130.35L90.86 130.35L90.86 124.10L104.69 124.10Q109.38 124.10 112.23 122.50Q115.08 120.90 116.37 118.11Q117.66 115.31 117.66 111.84L117.66 111.84Q117.66 108.32 116.37 105.57Q115.08 102.81 112.21 101.23Q109.34 99.65 104.61 99.65L104.61 99.65L92.19 99.65L92.19 151.60Z" /><path fill="#000000" d="M166.33 151.60L132.19 151.60L132.19 93.40L139.22 93.40L139.22 145.35L166.33 145.35L166.33 151.60Z" /><path fill="#000000" d="M193.20 102.62L175.86 151.60L168.44 151.60L189.84 93.40L197.11 93.40L218.44 151.60L211.09 151.60L193.67 102.62L193.20 102.62ZM178.59 135.12L178.59 128.87L208.36 128.87L208.36 135.12L178.59 135.12Z" /><path fill="#000000" d="M238.91 99.65L220.55 99.65L220.55 93.40L264.22 93.40L264.22 99.65L245.94 99.65L245.94 151.60L238.91 151.60L238.91 99.65Z" /><path fill="#000000" d="M291.09 102.62L273.75 151.60L266.33 151.60L287.73 93.40L295 93.40L316.33 151.60L308.98 151.60L291.56 102.62L291.09 102.62ZM276.48 135.12L276.48 128.87L306.25 128.87L306.25 135.12L276.48 135.12Z" /><path fill="#000000" d="M328.67 151.60L321.64 151.60L321.64 93.40L356.56 93.40L356.56 99.65L328.67 99.65L328.67 119.96L353.91 119.96L353.91 126.21L328.67 126.21L328.67 151.60Z" /><path fill="#000000" d="M388.32 152.38L388.32 152.38Q380.90 152.38 375.08 148.75Q369.26 145.12 365.92 138.42Q362.58 131.72 362.58 122.54L362.58 122.54Q362.58 113.32 365.92 106.60Q369.26 99.88 375.08 96.25Q380.90 92.62 388.32 92.62L388.32 92.62Q395.78 92.62 401.56 96.25Q407.34 99.88 410.66 106.60Q413.98 113.32 413.98 122.54L413.98 122.54Q413.98 131.72 410.66 138.42Q407.34 145.12 401.56 148.75Q395.78 152.38 388.32 152.38ZM388.32 145.82L388.32 145.82Q393.59 145.82 397.87 143.14Q402.15 140.47 404.67 135.27Q407.19 130.08 407.19 122.54L407.19 122.54Q407.19 114.96 404.67 109.75Q402.15 104.53 397.87 101.86Q393.59 99.18 388.32 99.18L388.32 99.18Q383.05 99.18 378.75 101.86Q374.45 104.53 371.91 109.75Q369.38 114.96 369.38 122.54L369.38 122.54Q369.38 130.08 371.91 135.27Q374.45 140.47 378.75 143.14Q383.05 145.82 388.32 145.82Z" /><path fill="#000000" d="M429.06 151.60L422.03 151.60L422.03 93.40L441.72 93.40Q448.55 93.40 452.91 95.72Q457.27 98.05 459.38 102.09Q461.48 106.13 461.48 111.29L461.48 111.29Q461.48 116.41 459.39 120.39Q457.30 124.38 452.95 126.62Q448.59 128.87 441.80 128.87L441.80 128.87L425.94 128.87L425.94 122.54L441.56 122.54Q446.25 122.54 449.10 121.17Q451.95 119.80 453.24 117.29Q454.53 114.77 454.53 111.29L454.53 111.29Q454.53 107.77 453.22 105.16Q451.91 102.54 449.06 101.09Q446.21 99.65 441.48 99.65L441.48 99.65L429.06 99.65L429.06 151.60ZM463.75 151.60L455.55 151.60L441.48 125.43L449.45 125.43L463.75 151.60Z" /><path fill="#000000" d="M489.22 102.62L471.88 151.60L464.45 151.60L485.86 93.40L493.13 93.40L514.45 151.60L507.11 151.60L489.69 102.62L489.22 102.62ZM474.61 135.12L474.61 128.87L504.38 128.87L504.38 135.12L474.61 135.12Z" /><path fill="#000000" d="M120.70 236.60L85.16 236.60L85.16 178.40L120.31 178.40L120.31 184.65L92.19 184.65L92.19 204.10L118.44 204.10L118.44 210.35L92.19 210.35L92.19 230.35L120.70 230.35L120.70 236.60Z" /><path fill="#000000" d="M168.44 178.40L175.47 178.40L175.47 236.60L168.52 236.60L136.88 190.90L136.25 190.90L136.25 236.60L129.22 236.60L129.22 178.40L136.02 178.40L167.89 224.18L168.44 224.18L168.44 178.40Z" /><path fill="#000000" d="M204.53 236.60L204.53 178.40L212.97 178.40L232.73 226.68L233.44 226.68L253.20 178.40L261.91 178.40L261.91 236.60L255 236.60L255 192.38L254.45 192.38L236.13 236.60L229.80 236.60L211.72 192.38L211.17 192.38L211.17 236.60L204.53 236.60Z" /><path fill="#000000" d="M307.77 236.60L272.23 236.60L272.23 178.40L307.38 178.40L307.38 184.65L279.26 184.65L279.26 204.10L305.51 204.10L305.51 210.35L279.26 210.35L279.26 230.35L307.77 230.35L307.77 236.60Z" /><path fill="#000000" d="M329.02 237.38L329.02 237.38Q324.26 237.38 320.53 235.64Q316.80 233.91 314.67 230.66Q312.54 227.42 312.54 222.93L312.54 222.93L312.54 221.60L319.49 221.60L319.49 222.93Q319.49 225.39 320.72 227.25Q321.95 229.10 324.10 230.12Q326.25 231.13 329.02 231.13L329.02 231.13Q332.07 231.13 334.20 229.86Q336.33 228.59 337.44 226.11Q338.55 223.63 338.55 220.04L338.55 220.04L338.55 178.40L345.59 178.40L345.59 220.04Q345.59 225.59 343.55 229.47Q341.52 233.36 337.81 235.37Q334.10 237.38 329.02 237.38Z" /><path fill="#000000" d="M379.38 237.38L379.38 237.38Q371.95 237.38 366.13 233.75Q360.31 230.12 356.97 223.42Q353.63 216.72 353.63 207.54L353.63 207.54Q353.63 198.32 356.97 191.60Q360.31 184.88 366.13 181.25Q371.95 177.62 379.38 177.62L379.38 177.62Q386.84 177.62 392.62 181.25Q398.40 184.88 401.72 191.60Q405.04 198.32 405.04 207.54L405.04 207.54Q405.04 216.72 401.72 223.42Q398.40 230.12 392.62 233.75Q386.84 237.38 379.38 237.38ZM379.38 230.82L379.38 230.82Q384.65 230.82 388.93 228.14Q393.20 225.47 395.72 220.27Q398.24 215.08 398.24 207.54L398.24 207.54Q398.24 199.96 395.72 194.75Q393.20 189.53 388.93 186.86Q384.65 184.18 379.38 184.18L379.38 184.18Q374.10 184.18 369.80 186.86Q365.51 189.53 362.97 194.75Q360.43 199.96 360.43 207.54L360.43 207.54Q360.43 215.08 362.97 220.27Q365.51 225.47 369.80 228.14Q374.10 230.82 379.38 230.82Z" /><path fill="#000000" d="M420.12 236.60L413.09 236.60L413.09 178.40L432.77 178.40Q439.61 178.40 443.96 180.72Q448.32 183.05 450.43 187.09Q452.54 191.13 452.54 196.29L452.54 196.29Q452.54 201.41 450.45 205.39Q448.36 209.38 444.00 211.62Q439.65 213.87 432.85 213.87L432.85 213.87L416.99 213.87L416.99 207.54L432.62 207.54Q437.30 207.54 440.16 206.17Q443.01 204.80 444.30 202.29Q445.59 199.77 445.59 196.29L445.59 196.29Q445.59 192.77 444.28 190.16Q442.97 187.54 440.12 186.09Q437.27 184.65 432.54 184.65L432.54 184.65L420.12 184.65L420.12 236.60ZM454.80 236.60L446.60 236.60L432.54 210.43L440.51 210.43L454.80 236.60Z" /><path fill="#000000" d="M480.27 187.62L462.93 236.60L455.51 236.60L476.91 178.40L484.18 178.40L505.51 236.60L498.16 236.60L480.74 187.62L480.27 187.62ZM465.66 220.12L465.66 213.87L495.43 213.87L495.43 220.12L465.66 220.12Z" /></g></g></svg>